<?xml version="1.0" standalone="no"?>
<!DOCTYPE svg PUBLIC "-//W3C//DTD SVG 20010904//EN"
 "http://www.w3.org/TR/2001/REC-SVG-20010904/DTD/svg10.dtd">
<svg version="1.0" xmlns="http://www.w3.org/2000/svg"
 width="200.000000pt" height="200.000000pt" viewBox="0 0 200.000000 200.000000"
 preserveAspectRatio="xMidYMid meet">

<g transform="translate(0.000000,200.000000) scale(0.100000,-0.100000)"
fill="#000000" stroke="none">
<path d="M284 1435 c-8 -19 13 -79 34 -98 16 -15 19 -12 36 30 l19 46 -22 19
c-28 22 -60 24 -67 3z"/>
<path d="M257 1179 c-9 -5 -22 -7 -28 -4 -5 4 -34 -17 -63 -47 -44 -44 -55
-61 -60 -98 -6 -42 -4 -49 26 -82 l33 -37 55 9 c36 6 56 6 58 0 2 -6 12 -10
23 -10 14 0 19 -7 19 -29 0 -17 4 -32 10 -36 18 -11 30 -75 18 -100 -9 -19 -7
-30 6 -49 9 -14 16 -32 16 -40 0 -8 8 -28 18 -45 13 -24 24 -31 48 -31 31 0
74 34 74 58 0 7 7 15 16 19 9 3 13 12 9 22 -4 10 5 25 26 42 31 25 32 28 22
66 -10 40 -9 42 38 98 54 62 65 101 26 86 -18 -7 -28 -3 -48 18 -36 36 -83
113 -82 132 1 13 -10 18 -50 22 -29 2 -55 1 -58 -4 -8 -14 -79 19 -79 36 0 17
-45 20 -73 4z m193 -109 c0 -28 3 -30 35 -30 24 0 35 -5 35 -15 0 -10 -11 -15
-35 -15 l-35 0 0 -65 c0 -51 -3 -65 -15 -65 -12 0 -15 14 -15 65 l0 65 -30 0
c-20 0 -30 5 -30 15 0 10 10 15 30 15 27 0 30 3 30 30 0 20 5 30 15 30 10 0
15 -10 15 -30z"/>
<path d="M704 1015 c0 -71 1 -99 3 -62 2 37 2 96 0 130 -2 34 -3 4 -3 -68z"/>
<path d="M810 758 c0 -85 15 -112 62 -116 66 -6 76 7 80 98 2 44 0 80 -4 80
-5 0 -8 -29 -8 -65 0 -52 -4 -69 -20 -85 -24 -24 -38 -25 -68 -4 -19 13 -22
24 -22 85 0 39 -4 69 -10 69 -6 0 -10 -27 -10 -62z"/>
<path d="M1150 810 c0 -5 5 -10 10 -10 6 0 10 5 10 10 0 6 -4 10 -10 10 -5 0
-10 -4 -10 -10z"/>
<path d="M1710 810 c0 -5 5 -10 10 -10 6 0 10 5 10 10 0 6 -4 10 -10 10 -5 0
-10 -4 -10 -10z"/>
<path d="M1769 788 c-2 -44 2 -113 7 -130 3 -10 15 -18 27 -18 20 1 20 2 5 11
-22 12 -26 104 -5 112 10 4 10 6 0 6 -7 1 -13 10 -13 21 0 28 -20 25 -21 -2z"/>
<path d="M1000 703 c0 -36 4 -63 10 -63 6 0 10 22 10 49 0 54 17 77 50 66 17
-5 20 -15 20 -61 0 -30 5 -54 10 -54 13 0 13 71 0 105 -9 23 -14 26 -55 23
l-45 -3 0 -62z"/>
<path d="M1150 705 c0 -37 4 -65 10 -65 6 0 10 28 10 65 0 37 -4 65 -10 65 -6
0 -10 -28 -10 -65z"/>
<path d="M1202 759 c3 -8 13 -38 23 -67 11 -29 24 -51 29 -49 12 4 58 118 51
125 -7 7 -9 4 -32 -58 l-20 -54 -17 52 c-10 28 -22 55 -28 59 -7 4 -9 1 -6 -8z"/>
<path d="M1352 757 c-40 -48 -15 -117 42 -117 33 0 66 24 52 38 -4 4 -12 -1
-17 -11 -13 -23 -56 -22 -69 2 -15 30 -14 31 40 31 43 0 50 3 50 19 0 42 -72
70 -98 38z m76 -24 c3 -20 -1 -23 -31 -23 -41 0 -49 7 -36 32 15 28 63 21 67
-9z"/>
<path d="M1490 703 c0 -75 14 -85 16 -12 1 48 16 75 36 63 4 -3 8 -1 8 5 0 6
-13 9 -30 8 -30 -2 -30 -2 -30 -64z"/>
<path d="M1580 755 c-18 -22 -5 -45 30 -51 33 -7 55 -28 45 -44 -10 -16 -53
-12 -64 7 -5 10 -13 15 -17 11 -15 -16 20 -39 55 -36 32 3 36 6 36 32 0 24 -6
31 -34 41 -19 6 -37 17 -39 23 -6 18 28 27 49 14 26 -16 34 -15 19 3 -16 19
-64 19 -80 0z"/>
<path d="M1710 705 c0 -37 4 -65 10 -65 6 0 10 28 10 65 0 37 -4 65 -10 65 -6
0 -10 -28 -10 -65z"/>
<path d="M1856 708 c26 -67 25 -104 -4 -110 -10 -2 -13 -6 -7 -10 6 -4 16 -3
23 1 15 9 84 181 72 181 -4 0 -16 -22 -26 -50 -10 -27 -21 -50 -24 -50 -3 0
-13 23 -23 50 -10 28 -22 50 -27 50 -5 0 3 -28 16 -62z"/>
</g>
</svg>
